<?xml version="1.0" standalone="no"?>
<!DOCTYPE svg PUBLIC "-//W3C//DTD SVG 20010904//EN"
 "http://www.w3.org/TR/2001/REC-SVG-20010904/DTD/svg10.dtd">
<svg version="1.0" xmlns="http://www.w3.org/2000/svg"
 width="347.000000pt" height="347.000000pt" viewBox="0 0 347.000000 347.000000"
 preserveAspectRatio="xMidYMid meet">
<metadata>
Created by potrace 1.11, written by Peter Selinger 2001-2013
</metadata>
<g transform="translate(0.000000,347.000000) scale(0.100000,-0.100000)"
fill="#000000" stroke="none">
<path d="M1461 2971 c-29 -97 -27 -169 8 -276 26 -76 30 -102 30 -200 0 -62
-5 -130 -10 -151 -5 -22 -12 -50 -15 -63 -9 -41 -198 -306 -267 -374 -16 -15
-59 -42 -95 -58 -37 -17 -79 -42 -94 -56 -25 -24 -36 -26 -110 -28 -46 0 -92
-6 -103 -13 -11 -6 -37 -18 -57 -26 -33 -13 -38 -13 -50 1 -7 8 -13 25 -14 37
-4 58 -63 126 -109 126 -38 0 -44 -40 -23 -143 12 -59 12 -59 -15 -83 -23 -19
-27 -31 -27 -74 0 -49 -1 -51 -35 -50 -5 0 -84 -41 -115 -59 -40 -24 -129 -61
-148 -61 -11 0 -23 -4 -26 -9 -5 -8 -67 -27 -111 -35 -11 -1 -32 -6 -47 -11
l-28 -7 0 -183 0 -183 42 -34 c23 -18 53 -45 67 -59 14 -15 53 -49 86 -77 33
-27 87 -75 119 -106 33 -31 62 -56 65 -56 3 0 42 -37 86 -81 44 -45 99 -94
122 -110 l42 -29 1420 0 1421 0 0 59 c0 56 -1 59 -27 66 -78 19 -231 98 -327
168 -47 34 -114 80 -150 102 -36 22 -66 45 -66 52 0 13 45 30 105 39 41 6 72
17 162 60 50 24 65 37 70 59 1 6 6 24 11 40 9 32 8 130 -3 180 -4 17 -8 53 -9
80 -1 28 -14 83 -29 123 -15 39 -25 72 -22 72 2 0 -16 57 -41 128 -29 82 -67
164 -108 232 -61 102 -101 176 -143 270 -14 31 -32 52 -57 65 -40 21 -42 27
-23 47 17 16 16 114 -1 145 -16 29 -15 33 6 33 24 0 70 60 66 88 -4 24 -39 83
-73 121 -11 13 -22 35 -22 48 -4 78 -11 116 -30 161 -5 13 -12 40 -15 60 -3
21 -12 52 -19 70 l-14 32 -615 0 -614 0 -21 -69z"/>
</g>
</svg>
